<svg xmlns="http://www.w3.org/2000/svg" xmlns:xlink="http://www.w3.org/1999/xlink" data-name="Layer 1" viewBox="0 0 823.07 585.39"><defs><linearGradient id="a" x1="399.48" x2="402.65" y1="498.46" y2="582.38" gradientUnits="userSpaceOnUse"><stop offset="0"/><stop offset=".98" stop-opacity="0"/></linearGradient><linearGradient id="d" x1="408.43" x2="408.43" y1="94.74" y2="603.02" gradientUnits="userSpaceOnUse"><stop offset="0" stop-color="#fff" stop-opacity="0"/><stop offset=".01" stop-color="#fff" stop-opacity=".01"/><stop offset=".38" stop-color="#fff" stop-opacity=".43"/><stop offset=".67" stop-color="#fff" stop-opacity=".74"/><stop offset=".88" stop-color="#fff" stop-opacity=".93"/><stop offset=".98" stop-color="#fff"/></linearGradient><linearGradient id="e" x1="398.46" x2="412.71" y1="293.63" y2="513.73" xlink:href="#a"/><linearGradient id="b" x1="512.32" x2="733.25" y1="347.86" y2="347.86" gradientUnits="userSpaceOnUse"><stop offset="0" stop-color="#183866"/><stop offset="1" stop-color="#1a7fc1"/></linearGradient><linearGradient id="c" x1="613.94" x2="822.78" y1="398.53" y2="398.53" gradientUnits="userSpaceOnUse"><stop offset="0" stop-color="#ecc4d7"/><stop offset=".42" stop-color="#efd4d1"/><stop offset="1" stop-color="#f2eac9"/></linearGradient><linearGradient id="f" x1="675.48" x2="491.05" y1="340.69" y2="365.78" xlink:href="#b"/><linearGradient id="g" x1="402.88" x2="402.88" y1="550.1" y2="597.19" xlink:href="#a"/><linearGradient id="h" x1="525.35" x2="579.84" y1="200.05" y2="200.05" xlink:href="#a"/><linearGradient id="i" x1="589.61" x2="675.6" y1="175.79" y2="175.79" xlink:href="#a"/><linearGradient id="j" x1="557.39" x2="629.28" y1="159" y2="222.8" xlink:href="#a"/><linearGradient id="k" x1="580.58" x2="650.76" y1="320.97" y2="320.97" xlink:href="#c"/><linearGradient id="l" x1="614.41" x2="613.55" y1="331.93" y2="359.24" xlink:href="#c"/><linearGradient id="m" x1="620.33" x2="620.33" y1="358.98" y2="374.79" xlink:href="#c"/><linearGradient id="n" x1="624.23" x2="625.09" y1="369.44" y2="392.72" xlink:href="#c"/><linearGradient id="o" x1="429.8" x2="364.14" y1="140.22" y2="424.32" xlink:href="#a"/><linearGradient id="p" x1="441.6" x2="375.93" y1="142.95" y2="427.04" xlink:href="#a"/><linearGradient id="q" x1="371.79" x2="306.13" y1="126.81" y2="410.91" xlink:href="#a"/><linearGradient id="r" x1="679.65" x2="800.49" y1="476.79" y2="476.79" xlink:href="#b"/></defs><path fill="#68e1fd" d="M678.72 567.93c-20.73 12.77-31.09 13.14-55.44 13.14q-82.82 0-165.64-.78l11.43-4.39c.67-6.34-8.09-8.66-14.47-8.56l-288.85 4.23c-51.52.75-110.38-1.68-143.38-41.25C4 508.32-2.4 477.92.83 449.43s5.85-90.71 89.78-165.19c27.77-24.65 59 8 66-28.49 10.5-54.62-31.09-109-21.56-163.83 5.11-29.38 25.08-55 50.53-70.59S241.42-.38 271.24 0c18 .24 36.24 2.85 52.5 10.54 15.88 7.52 29.13 19.51 43 30.33 20.3 15.87 42.69 29.68 67.5 36.61 49.67 13.87 102.12-1.07 153.36-6.88 44.4-5 90.88-2.77 131.34 16.19s73.83 56.93 78.45 101.37c5.05 48.51-22.78 101.38.82 144.06 6.63 12 19.6 20.54 23.48 33.67 6.78 22.91-13.76 58.21-2.2 103.24 6.81 26.55-19 61.78-45.13 76.26-11.61 6.43-46-8.04-95.64 22.54Z" opacity=".18"/><path fill="#68e1fd" d="M312.16 514.19h178.46v69.62H312.16z"/><path fill="url(#a)" d="M312.16 514.19h178.46v69.62H312.16z"/><path fill="#68e1fd" d="M732.32 88.19v388a42.76 42.76 0 0 1-42.76 42.75H125.42a42.75 42.75 0 0 1-42.75-42.79v-388a42.76 42.76 0 0 1 42.75-42.76h564.14a42.77 42.77 0 0 1 42.76 42.8Z"/><path fill="url(#d)" d="M733.25 88.19v388a42.76 42.76 0 0 1-42.76 42.75H126.35a42.75 42.75 0 0 1-42.75-42.79v-388a42.76 42.76 0 0 1 42.75-42.76h564.14a42.77 42.77 0 0 1 42.76 42.8Z" transform="translate(-.93)"/><path fill="#68e1fd" d="M732.32 417.54v58.61a42.74 42.74 0 0 1-42.76 42.75H125.42a42.75 42.75 0 0 1-42.75-42.75v-58.61Z"/><path fill="url(#e)" d="M733.25 417.54v58.61a42.74 42.74 0 0 1-42.76 42.75H126.35a42.75 42.75 0 0 1-42.75-42.75v-58.61Z" transform="translate(-.93)"/><path fill="url(#b)" d="M733.25 472.87v3.28a42.71 42.71 0 0 1-19.94 36.16 111.38 111.38 0 0 1-13.68 4.89q-17.39-37.73-34.76-75.45c-3.79-8.2-7.69-16.58-12.52-24.21a72 72 0 0 0-14.73-17.29l-.9 17.29c-.27 5.13-.55 10.28-.81 15.41-.16 3-.38 6.17-2.12 8.61-3.27 4.56-10.61 4.26-15.06.84s-6.73-8.91-8.73-14.14q-2.06-5.34-4-10.72-7.15-19.44-13.23-39.27c-16.77-2.54-29.61-20.27-26.85-36.94.64-3.85 2-7.55 2.68-11.36.94-5 .79-10.19.66-15.31L567 234.25a134 134 0 0 1-23.44-2.8 13.64 13.64 0 0 1-24.66 6.09c-2.37-3.35-3.1-7.57-3.66-11.65-.77-5.72-5.62-26.8-.95-31.1 4.18-3.85 19.34.77 25.58-.75 8.24-2 15.89-5.86 23.85-8.79a110.07 110.07 0 0 1 40.28-6.71c9.92.22 20.18 1.92 28.36 7.56s13.7 15.93 11.37 25.58c-4.73 1.59-8.36-4.8-13.23-5.83-2.43-.51-4.9.38-7.22 1.25q-13.78 5.21-27.57 10.41c-1.74.65-3.6 1.4-4.57 3s-.78 3.64-.48 5.5a82.91 82.91 0 0 0 14.43 35.17c6.67 9.32 15.26 17.24 21.18 27.06s8.8 22.68 3.08 32.61a5.36 5.36 0 0 0-.91 2.15c-.16 1.66 1.3 2.95 2.61 4 31.05 24 53.95 56.12 73.46 90.54 10.27 18.08 19.61 36.8 28.74 55.33Z" opacity=".19" transform="translate(-.93)"/><path fill="url(#c)" d="m800.49 532.47-.11.08a73.8 73.8 0 0 1-9 6 73.48 73.48 0 0 1-16 6.85S690 417.7 679.67 408.15c-7.95-7.31-22.21-11.67-29.59-14.54a16.9 16.9 0 0 1-4.36-2.14c-3.05-2.76-15.29-47.07-23.75-60.19-9.22-14.31-9.37-21.39-6-24.67a10.69 10.69 0 0 1 6.77-2.5c6.17-.43 13.32 1.85 13.32 1.85 1.65-3.22 1.19-6.62-.4-10.45-2.44-6-7.6-13-11.74-22-6.77-14.81 4.5-21.81 4.5-21.81s31.62 33.78 49.42 47.87 18.18 57.32 45.4 82.43 97.17 87.21 97.17 87.21c8 32.54-5.6 52.12-19.92 63.26Z" transform="translate(-.93)"/><path fill="url(#f)" d="M660.28 375.94c2.5 4.48 3.56 21.55-10.22 17.65-4.32-1.22-8.93-.89-13.27-2a10.89 10.89 0 0 1-4-1.74c-2.58-2-3-5.64-3.59-8.86-2.41-13.85-10.3-26.24-13-40-1.21-6.08-1.48-12.61-4.78-17.85-2-3.18-5.18-6.63-3.73-10.09.67-1.59 2.18-2.64 3.62-3.6a36.63 36.63 0 0 1 4.7-2.8c.28-.13.57-.27.86-.38 1.41-.55 2.89-.9 4.3-1.45.55-.21 1.09-.43 1.61-.67 6.17-.43 13.32 1.85 13.32 1.85 1.65-3.22 1.19-6.62-.4-10.45 4.88 4 20.92 25.48 16.13 46.05-.83 3.21-7.49 5.77 8.45 34.34Z" opacity=".19" transform="translate(-.93)"/><path fill="#68e1fd" d="M262.85 573.97H542.9v11.43H262.85z"/><path fill="url(#g)" d="M262.85 573.97H542.9v11.43H262.85z"/><path fill="#68e1fd" d="m511.15 189.28 15.53-5.43 2.3 4.35s81.18-34.24 112.25-35 42.58 27.21 46.41 45.22c0 0-27-28-64.66-16.48s-86.34 28.24-86.34 28.24l1.53 7-14.94 5.75Z"/><path fill="#68e1fd" d="m556.43 176.4 11.84 30.81a7.15 7.15 0 0 0 8.47 4.36l23-5.94a7.15 7.15 0 0 0 5.34-7.56L602 163.21a7.17 7.17 0 0 0-9.28-6.2l-31.76 10a7.16 7.16 0 0 0-4.53 9.39Z"/><path fill="url(#h)" d="M566.57 200.37c-16.85 5.62-29 9.8-29 9.8l1.53 7-14.94 5.75-12.08-33.66 15.53-5.43 2.3 4.35s11.61-4.9 27.74-11Z" transform="translate(-.93)"/><path fill="url(#i)" d="M688.57 198.41s-27-28-64.66-16.48c-6.07 1.85-12.42 3.84-18.81 5.87l-2.17-24.59a6.76 6.76 0 0 0-.35-1.63c15.41-4.67 29.92-8.15 39.58-8.39 31.07-.76 42.58 27.21 46.41 45.22Z" transform="translate(-.93)"/><path fill="url(#j)" d="m600.67 205.63-23 5.94a7.15 7.15 0 0 1-8.47-4.36l-2.63-6.84-8.92-23.21-.29-.76a7.16 7.16 0 0 1 4.53-9.4l31.76-10a7.15 7.15 0 0 1 8.93 4.57 6.76 6.76 0 0 1 .35 1.63l2.17 24.59.91 10.27a7.15 7.15 0 0 1-5.34 7.57Z" transform="translate(-.93)"/><path fill="#3f3d56" d="m576.74 211.57 48.5 227.31s11 18.71 27.29 13.67-1.65-65.68-20.25-121.55-32.38-112-32.54-125.33Z"/><path fill="url(#k)" d="M597.64 305.18s-20.26 5.59-16.63 15.71 38.28 18.55 56.63 15.1 13.9-11.41 7.88-15.1-46.39-8.71-46.39-8.71Z" transform="translate(-.93)"/><path fill="url(#l)" d="M588.25 327.7s-13.32 10.34-8.43 19.8 54.39 13.05 63.55 10.35 5.29-12.1 2.65-14a109.29 109.29 0 0 1-8.38-7.82s-25.55 3.69-49.39-8.33Z" transform="translate(-.93)"/><path fill="url(#m)" d="M590.2 372.38s-9.62-13.66 5.15-17.63c0 0 38.48 6.18 48 3.1 0 0 11.17 4.39 10.09 12.34-1.37 10.23-57.37 11.88-63.24 2.19Z" transform="translate(-.93)"/><path fill="url(#n)" d="M612 395.49s34 2.8 39.47-5.31-5.47-14.24-5.47-14.24-32.26 4.29-42.07 1.88-12.23 12.79 8.07 17.67Z" transform="translate(-.93)"/><path fill="url(#o)" d="M396 213.41c-.05-.12-.09-.26-.13-.39a53.12 53.12 0 0 0-4.6-11.1c-3.16-5.61-8-11.5-15-12.65a3.07 3.07 0 0 1 1-6.05c17.25 2.86 23.82 25.64 24.48 28.1a39.21 39.21 0 0 1 20.8-.11c.8-2.92 7.4-25.16 24.45-28a3.07 3.07 0 0 1 1 6.05c-6.95 1.15-11.84 7-15 12.65a52.84 52.84 0 0 0-4.6 11.09l-.06.24c10.39 4.55 19 13.44 24.38 24.82H372c5.27-11.23 13.76-20.06 24-24.65Z" opacity=".47" transform="translate(-.93)"/><path fill="url(#p)" d="M458.53 267.83a65.48 65.48 0 0 1-1.71 12.28h13.83a4.6 4.6 0 0 1 3.26 7.86 4.66 4.66 0 0 1-3.26 1.34h-14.36a4.43 4.43 0 0 1-2.21-.57 57.73 57.73 0 0 1-4.29 8.58h9.08a4.6 4.6 0 1 1 0 9.2h-14.36a4.55 4.55 0 0 1-1.53-.26c-8.15 8.6-18.88 13.83-30.62 13.83s-22.53-5.25-30.69-13.89a4.5 4.5 0 0 1-1.69.32h-14.37a4.59 4.59 0 0 1-4.6-4.6 4.59 4.59 0 0 1 4.6-4.6h9.3a59.66 59.66 0 0 1-4.33-8.69 4.47 4.47 0 0 1-2.39.68h-14.37a4.6 4.6 0 1 1 0-9.2h14.07a63.93 63.93 0 0 1-1.7-12.21H352a4.61 4.61 0 1 1 0-9.21h14.46a63.9 63.9 0 0 1 1.84-10.3h88.19a64.16 64.16 0 0 1 1.85 10.41 4.71 4.71 0 0 1 1-.11h14.36a4.61 4.61 0 1 1 0 9.21h-14.4a3.94 3.94 0 0 1-.77-.07Z" opacity=".47" transform="translate(-.93)"/><path fill="url(#q)" d="M347.35 211.58a21 21 0 1 0 21 21 21 21 0 0 0-21-21Zm0 6.28a14.7 14.7 0 0 1 14.71 14.71 14.88 14.88 0 0 1-.49 3.8L337 222.16a14.64 14.64 0 0 1 10.35-4.3Zm0 29.42a14.72 14.72 0 0 1-14.17-18.67l24.69 14.25a14.73 14.73 0 0 1-10.52 4.42Z" opacity=".47" transform="translate(-.93)"/><path fill="url(#r)" d="m800.49 532.47-.11.08c-.71.5-4.5 3.2-9 6-5.76 3.55-12.72 7.25-16 6.85 0 0-85.26-127.71-95.59-137.26s11.87.14 24.86 9.41 95.84 114.92 95.84 114.92Z" opacity=".19" transform="translate(-.93)"/></svg>